<!-- Weihnachtsmann SVG -->
<svg xmlns="http://www.w3.org/2000/svg" xmlns:xlink="http://www.w3.org/1999/xlink" width="1200" height="2000">
    <defs>
        <radialGradient id="gradRed">
            <stop offset="0%" stop-color="rgb(127,30,30)" stop-opacity="1" />
            <stop offset="100%" stop-color="rgb(95,12,22)" stop-opacity="1" />
        </radialGradient>
        <radialGradient id="gradSkin">
            <stop offset="0%" stop-color="rgb(244,243,233)" stop-opacity="1" />
            <stop offset="100%" stop-color="rgb(226,220,211)" stop-opacity="1" />
        </radialGradient>
        <linearGradient id="gradBlue" x1="0%" x2="0%" y1="100%" y2="0%">
            <stop offset="0%" stop-color="rgb(39,67,114)" stop-opacity="1" />
            <stop offset="100%" stop-color="rgb(131,155,204)" stop-opacity="1" />
        </linearGradient>
    </defs>

    <g id="weihnachtsmann"> <!-- Gesamter Wihnachtsmann -->
        <!-- Sack hinten -->
        <path fill-rule="evenodd" stroke="rgb(0, 0, 0)" stroke-width="2px" stroke-linecap="round" stroke-linejoin="round" fill="rgb(65, 32, 22)">
            <animate attributeName="d" dur="4.2s" repeatCount="indefinite" values="
                M692.000,875.004 C905.218,875.004 1078.066,1121.693 1078.066,1426.000 C1078.066,1730.307 905.218,1976.996 692.000,1976.996 C478.782,1976.996 305.934,1730.307 305.934,1426.000 C305.934,1121.693 478.782,875.004 692.000,875.004 Z;
                M681.594,901.095 C893.393,876.842 1093.157,1102.268 1127.778,1404.599 C1162.399,1706.930 1018.767,1971.679 806.968,1995.933 C595.168,2020.187 395.405,1794.761 360.784,1492.430 C326.163,1190.099 469.795,925.349 681.594,901.095 Z;
                M692.000,875.004 C905.218,875.004 1078.066,1121.693 1078.066,1426.000 C1078.066,1730.307 905.218,1976.996 692.000,1976.996 C478.782,1976.996 305.934,1730.307 305.934,1426.000 C305.934,1121.693 478.782,875.004 692.000,875.004 Z;
            "/>
        </path>
        <!-- Koerper -->
        <path fill-rule="evenodd" stroke="rgb(0, 0, 0)" stroke-width="2px" stroke-linecap="round" stroke-linejoin="round" fill="url(#gradRed)" d="M392.365,782.983 C394.866,809.330 392.519,834.435 384.417,855.748 C375.482,879.251 356.689,899.339 320.827,914.746 C295.713,925.536 275.206,928.450 249.288,934.413 C229.435,938.980 209.894,945.241 201.595,952.112 C161.674,985.164 148.352,1057.751 141.980,1113.374 C118.585,1317.582 109.002,1557.185 120.783,1766.290 C126.098,1860.623 127.081,1921.061 128.000,2018.000 L859.354,2018.017 C853.438,1928.303 851.881,1839.536 854.718,1751.541 C856.638,1691.949 871.585,1289.753 842.464,1098.625 C833.330,1038.678 817.301,987.241 785.828,957.029 C776.011,947.605 751.495,933.956 723.563,929.496 C700.259,925.775 681.961,929.166 658.648,925.563 C629.185,921.009 608.767,902.404 603.007,893.114 C587.206,867.626 585.809,831.219 593.151,797.733 L392.365,782.983 Z"/>
        <!-- Arm Sack -->
        <path fill-rule="evenodd" stroke="rgb(0, 0, 0)" stroke-width="2px" stroke-linecap="round" stroke-linejoin="round" fill="url(#gradRed)" d="M841.000,1094.000 C852.092,1150.900 865.330,1206.202 881.000,1261.000 C899.973,1327.348 917.904,1378.830 905.000,1386.000 C888.369,1395.241 831.836,1324.587 810.000,1296.000 C793.847,1274.853 779.375,1253.393 766.000,1231.000 C746.201,1197.850 728.540,1163.167 713.000,1127.000 C677.333,1145.333 641.667,1163.667 606.000,1182.000 C631.196,1247.660 663.974,1309.290 704.000,1366.000 C735.611,1410.789 784.047,1464.546 845.000,1516.000 C907.066,1568.394 956.620,1591.271 975.000,1585.000 C1037.783,1563.580 1040.429,1414.041 1033.000,1307.000 C1020.886,1132.452 975.951,989.299 877.000,951.000 C864.760,946.263 832.810,942.622 805.000,939.000 C778.540,935.554 752.623,932.602 726.000,930.000 "/>
        <!-- Anderer Arm -->
        <path fill-rule="evenodd" stroke="rgb(0, 0, 0)" stroke-width="2px" stroke-linecap="round" stroke-linejoin="round" fill="url(#gradRed)" d="M267.000,932.000 C234.913,932.661 203.386,935.659 172.849,941.121 C135.764,947.754 109.931,956.787 87.849,971.121 C68.888,983.429 52.498,998.961 38.849,1017.121 C38.849,1017.121 11.151,1075.879 11.000,1214.000 C8.878,1336.953 7.169,1459.156 5.849,1582.121 C4.279,1728.472 3.284,1873.761 2.849,2020.121 L155.000,2018.000 C150.181,1932.958 147.509,1849.625 146.849,1764.121 C145.950,1647.502 156.455,1545.731 154.849,1429.121 C153.857,1357.124 155.380,1255.014 173.849,1153.121 C178.941,1125.030 184.867,1097.701 191.849,1070.121 "/>
        <!-- Sack in der Hand -->
        <path fill-rule="evenodd" stroke="rgb(0, 0, 0)" stroke-width="2px" stroke-linecap="round" stroke-linejoin="round" fill="rgb(65, 32, 22)" d="M591.000,1136.000 C592.594,1148.742 587.800,1158.302 583.000,1174.000 C578.229,1189.602 576.740,1198.610 568.000,1204.000 C559.217,1209.417 545.785,1209.861 542.000,1204.000 C539.851,1200.673 541.395,1193.630 548.000,1183.000 C550.648,1178.738 559.058,1169.532 558.000,1168.000 C557.179,1166.812 552.906,1168.512 549.000,1170.000 C542.343,1172.535 537.325,1172.723 531.000,1176.000 C524.800,1179.212 520.766,1182.637 517.000,1181.000 C512.698,1179.129 510.351,1171.344 512.000,1165.000 C513.901,1157.690 522.724,1153.942 522.000,1149.000 C521.186,1143.443 509.737,1142.575 509.001,1137.001 C508.655,1134.383 510.815,1131.970 513.000,1130.000 C527.953,1116.521 549.493,1109.805 556.000,1108.000 C563.713,1105.860 569.182,1104.540 575.000,1107.000 C586.179,1111.726 589.918,1127.353 591.000,1136.000 Z"/>
        <!-- Sack vorn -->
        <path fill-rule="evenodd" stroke="rgb(0, 0, 0)" stroke-width="2px" stroke-linecap="round" stroke-linejoin="round" fill="rgb(65, 32, 22)" d="M634.000,1043.000 C638.231,984.082 574.406,939.398 589.000,905.000 C603.484,870.861 682.025,873.681 710.000,876.000 C826.309,885.642 919.097,959.195 912.000,975.000 C906.568,987.096 842.718,953.928 780.000,979.000 C734.280,997.277 686.546,1057.584 674.000,1068.000 C651.575,1086.618 626.634,1102.573 599.000,1116.000 C619.918,1093.061 632.151,1068.751 634.000,1043.000 Z"/>
        <!-- Hand -->
        <path fill-rule="evenodd" stroke="rgb(0, 0, 0)" stroke-width="2px" stroke-linecap="round" stroke-linejoin="round" fill="rgb(231, 223, 211)" d="M626.000,1016.352 C666.675,1016.352 699.648,1049.325 699.648,1090.000 C699.648,1130.675 666.675,1163.648 626.000,1163.648 C585.325,1163.648 552.352,1130.675 552.352,1090.000 C552.352,1049.325 585.325,1016.352 626.000,1016.352 Z"/>
        <!-- Hand Dingens vom Mantel -->
        <path fill-rule="evenodd" stroke="rgb(0, 0, 0)" stroke-width="2px" stroke-linecap="round" stroke-linejoin="round" fill="rgb(255, 255, 255)" d="M586.167,1163.197 L711.898,1107.221 L711.898,1107.221 L735.809,1161.789 L735.809,1161.789 L610.078,1217.764 L610.078,1217.764 L586.167,1163.197 L586.167,1163.197 Z"/>
        <!-- Kopf -->
        <g>
            <!-- Gesicht -->
            <path fill-rule="evenodd" stroke="rgb(0, 0, 0)" stroke-width="2px" stroke-linecap="round" stroke-linejoin="round" fill="url(#gradSkin)" d="M324.314,458.048 C324.314,458.048 310.854,649.554 325.987,699.251 C343.680,757.360 493.175,815.029 493.175,815.029 C493.175,815.029 657.346,762.255 670.797,701.006 C681.728,651.230 677.119,456.294 677.119,456.294 L324.314,458.048 Z"/>
            <!-- Mund -->
            <path fill-rule="evenodd" stroke="rgb(0, 0, 0)" stroke-width="2px" stroke-linecap="round" stroke-linejoin="round" fill="none" d="M456.997,731.269 C469.445,735.637 486.558,737.937 503.993,737.359 C518.607,736.875 532.076,734.412 541.990,730.552 "/>
            <!-- Nase -->
            <path fill-rule="evenodd" stroke="rgb(0, 0, 0)" stroke-width="2px" stroke-linecap="round" stroke-linejoin="round" d="M499.134,634.377 C512.755,634.377 523.797,645.422 523.797,659.047 C523.797,672.671 512.755,683.716 499.134,683.716 C485.513,683.716 474.471,672.671 474.471,659.047 C474.471,645.422 485.513,634.377 499.134,634.377 Z">
                <animate attributeName="fill" values="rgb(150, 0, 0);rgb(72, 27, 128);rgb(150, 0, 0)" dur="10s" repeatCount="indefinite"/>
            </path>
            
            <!-- Auge -->
            <g>
                <!-- Inneres Auge -->
                <g transform-origin="0 568.251">
                    <!-- Weißer Teil des Auges -->
                    <path fill-rule="evenodd" fill="rgb(255, 255, 255)" d="M377.612,605.445 C369.557,600.891 365.477,594.732 360.380,586.426 C351.341,571.698 346.240,562.822 349.229,557.396 C351.553,553.178 356.421,552.830 363.421,550.389 C372.626,547.179 375.691,542.071 384.708,538.377 C399.172,532.451 415.828,531.929 431.338,535.374 C437.227,536.682 448.992,541.568 459.721,548.387 C463.319,550.673 467.107,553.524 468.844,558.397 C470.025,561.707 469.172,569.208 464.790,578.418 C462.484,583.262 459.540,588.141 455.666,593.433 C452.488,597.775 448.972,601.653 446.543,603.443 C441.452,607.194 435.642,609.271 427.283,610.450 C418.314,611.716 410.958,611.321 400.927,610.450 C390.824,609.573 383.342,608.684 377.612,605.445 Z"/>
                    <!-- Iris -->
                    <path fill-rule="evenodd" fill="url(#gradBlue)" d="M414.657,532.903 C432.598,532.903 447.142,550.361 447.142,571.896 C447.142,593.431 432.598,610.889 414.657,610.889 C396.715,610.889 382.171,593.431 382.171,571.896 C382.171,550.361 396.715,532.903 414.657,532.903 Z"/>
                    <!-- Pupille -->
                    <path fill-rule="evenodd" fill="rgb(0, 0, 0)" d="M414.938,557.242 C421.010,557.242 425.933,564.181 425.933,572.739 C425.933,581.298 421.010,588.237 414.938,588.237 C408.865,588.237 403.943,581.298 403.943,572.739 C403.943,564.181 408.865,557.242 414.938,557.242 Z"/>
                    <!-- Lichtreflektion -->
                    <path fill-rule="evenodd" fill="rgb(255, 255, 255)" d="M395.304,572.896 C395.729,572.912 394.171,585.119 399.990,592.649 C402.494,595.890 406.027,597.773 409.361,598.576 C413.622,599.601 417.107,598.224 417.171,598.576 C417.248,598.999 412.828,601.639 407.631,600.704 C404.002,600.052 400.220,597.694 397.647,593.637 C392.165,584.991 394.877,572.879 395.304,572.896 Z"/>
                    <!-- Lichtreflektion -->
                    <path fill-rule="evenodd" fill="rgb(255, 255, 255)" d="M437.039,573.895 C436.614,573.879 438.172,561.672 432.353,554.142 C429.849,550.901 426.316,549.018 422.982,548.215 C418.721,547.190 415.236,548.567 415.172,548.215 C415.095,547.792 419.515,545.152 424.712,546.087 C428.341,546.739 432.123,549.097 434.696,553.154 C440.178,561.800 437.466,573.912 437.039,573.895 Z"/>
                    <!-- Lichtreflektion -->
                    <path fill-rule="evenodd" fill="rgb(255, 255, 255)" d="M402.678,544.901 C405.162,544.901 407.176,547.139 407.176,549.900 C407.176,552.661 405.162,554.899 402.678,554.899 C400.193,554.899 398.180,552.661 398.180,549.900 C398.180,547.139 400.193,544.901 402.678,544.901 Z"/>
                    <!-- Lichtreflektion -->
                    <path fill-rule="evenodd" fill="rgb(255, 255, 255)" d="M400.179,550.900 C402.387,550.900 404.177,552.914 404.177,555.399 C404.177,557.884 402.387,559.898 400.179,559.898 C397.971,559.898 396.180,557.884 396.180,555.399 C396.180,552.914 397.971,550.900 400.179,550.900 Z"/>
                    <!-- Lichtreflektion -->
                    <path fill-rule="evenodd" fill="rgb(255, 255, 255)" d="M431.665,586.893 C434.701,586.893 437.162,589.355 437.162,592.392 C437.162,595.429 434.701,597.891 431.665,597.891 C428.628,597.891 426.167,595.429 426.167,592.392 C426.167,589.355 428.628,586.893 431.665,586.893 Z"/>
                    
                    <!-- Weißer Teil des Auges -->
                    <path fill-rule="evenodd" fill="rgb(255, 255, 255)" d="M615.676,605.566 C623.720,601.026 627.795,594.886 632.886,586.606 C641.913,571.925 647.007,563.077 644.022,557.668 C641.702,553.463 636.840,553.116 629.849,550.683 C620.656,547.483 617.594,542.391 608.589,538.708 C594.143,532.801 577.509,532.280 562.019,535.715 C556.138,537.019 544.388,541.890 533.673,548.687 C530.080,550.966 526.297,553.808 524.561,558.666 C523.382,561.965 524.234,569.442 528.611,578.623 C530.913,583.453 533.853,588.315 537.722,593.591 C540.896,597.919 544.408,601.786 546.834,603.570 C551.918,607.309 557.721,609.379 566.069,610.555 C575.026,611.816 582.373,611.423 592.391,610.555 C602.481,609.681 609.953,608.795 615.676,605.566 Z"/>
                    <!-- Iris -->
                    <path fill-rule="evenodd" fill="url(#gradBlue)" d="M578.508,533.002 C596.461,533.002 611.014,550.460 611.014,571.997 C611.014,593.533 596.461,610.992 578.508,610.992 C560.556,610.992 546.002,593.533 546.002,571.997 C546.002,550.460 560.556,533.002 578.508,533.002 Z"/>
                    <!-- Pupille -->
                    <path fill-rule="evenodd" fill="rgb(0, 0, 0)" d="M578.790,557.342 C584.866,557.342 589.792,564.281 589.792,572.840 C589.792,581.400 584.866,588.338 578.790,588.338 C572.713,588.338 567.788,581.400 567.788,572.840 C567.788,564.281 572.713,557.342 578.790,557.342 Z"/>
                    <!-- Lichtreflektion -->
                    <path fill-rule="evenodd" fill="rgb(255, 255, 255)" d="M559.144,572.997 C559.569,573.013 558.010,585.221 563.832,592.752 C566.338,595.992 569.874,597.875 573.210,598.678 C577.473,599.704 580.960,598.326 581.024,598.678 C581.102,599.102 576.679,601.742 571.478,600.807 C567.847,600.154 564.062,597.797 561.488,593.739 C556.002,585.093 558.716,572.980 559.144,572.997 Z"/>
                    <!-- Lichtreflektion -->
                    <path fill-rule="evenodd" fill="rgb(255, 255, 255)" d="M600.905,573.996 C600.479,573.980 602.039,561.772 596.216,554.241 C593.711,551.001 590.175,549.118 586.839,548.315 C582.576,547.289 579.088,548.667 579.024,548.315 C578.947,547.891 583.370,545.251 588.570,546.186 C592.202,546.839 595.986,549.196 598.561,553.254 C604.046,561.900 601.332,574.013 600.905,573.996 Z"/>
                    <!-- Lichtreflektion -->
                    <path fill-rule="evenodd" fill="rgb(255, 255, 255)" d="M566.522,545.000 C569.008,545.000 571.023,547.238 571.023,549.999 C571.023,552.761 569.008,554.999 566.522,554.999 C564.036,554.999 562.021,552.761 562.021,549.999 C562.021,547.238 564.036,545.000 566.522,545.000 Z"/>
                    <!-- Lichtreflektion -->
                    <path fill-rule="evenodd" fill="rgb(255, 255, 255)" d="M564.021,550.999 C566.231,550.999 568.022,553.014 568.022,555.499 C568.022,557.984 566.231,559.998 564.021,559.998 C561.812,559.998 560.021,557.984 560.021,555.499 C560.021,553.014 561.812,550.999 564.021,550.999 Z"/>
                    <!-- Lichtreflektion -->
                    <path fill-rule="evenodd" fill="rgb(255, 255, 255)" d="M595.527,586.995 C598.565,586.995 601.028,589.457 601.028,592.494 C601.028,595.531 598.565,597.993 595.527,597.993 C592.489,597.993 590.026,595.531 590.026,592.494 C590.026,589.457 592.489,586.995 595.527,586.995 Z"/>
            

                    <animateTransform attributeName="transform" type="scale" dur="3s" keyTimes="0;0.7;0.72;0.74;1" repeatCount="indefinite" values="1,1;1,1;1,0;1,1;1,1"/>
                </g>

                <g transform-origin="0 568.251">
                    <!-- Oberes Augenlid -->
                    <path fill-rule="evenodd" fill="rgb(31, 33, 35)" d="M348.231,556.311 C348.735,556.929 354.279,554.599 361.370,551.787 C372.951,547.196 385.101,543.051 392.348,541.414 C398.317,540.066 415.077,539.662 432.241,543.014 C451.791,546.831 468.153,555.338 469.103,554.187 C469.909,553.209 461.026,546.794 450.192,541.414 C435.355,534.045 419.796,531.133 413.292,531.016 C405.787,530.880 396.498,531.991 385.367,535.815 C379.199,537.934 370.053,541.911 361.370,546.988 C355.995,550.131 347.571,555.501 348.231,556.311 Z"/>
                    
                    <!-- Oberes Augenlid -->
                    <path fill-rule="evenodd" fill="rgb(31, 33, 35)" d="M645.019,556.586 C644.516,557.202 638.979,554.879 631.897,552.076 C620.331,547.499 608.197,543.367 600.959,541.736 C594.997,540.392 578.260,539.989 561.118,543.330 C541.592,547.136 525.252,555.616 524.303,554.468 C523.498,553.494 532.369,547.099 543.189,541.736 C558.008,534.390 573.547,531.488 580.042,531.370 C587.537,531.235 596.814,532.342 607.931,536.154 C614.091,538.267 623.226,542.231 631.897,547.292 C637.265,550.425 645.679,555.778 645.019,556.586 Z"/>
                
                    <animateTransform attributeName="transform" type="translate" dur="3s" keyTimes="0;0.7;0.72;0.74;1" repeatCount="indefinite" values="0,0;0,0;0,8.6;0,0;0,0"/>
                    <animateTransform attributeName="transform" type="scale" dur="3s" keyTimes="0;0.7;0.72;0.74;1" repeatCount="indefinite" values="1,1;1,1;1,.3;1,1;1,1" additive="sum"/>
                </g>

                <!-- Augenbraue -->
                <path fill-rule="evenodd" stroke="rgb(0, 0, 0)" stroke-width="4px" stroke-linecap="round" stroke-linejoin="round" fill="none" d="M460.607,524.081 C444.293,519.002 427.354,516.473 410.287,516.582 C390.866,516.707 371.654,520.250 353.430,527.043 "/>
                
                <!-- Augenbraue -->
                <path fill-rule="evenodd" stroke="rgb(0, 0, 0)" stroke-width="4px" stroke-linecap="round" stroke-linejoin="round" fill="none" d="M532.788,524.457 C549.081,519.394 565.998,516.873 583.043,516.982 C602.439,517.107 621.626,520.638 639.826,527.410 "/>
                
                <g transform-origin="0 568.251">
                    <!-- Unteres Augenlid -->
                    <path fill-rule="evenodd" fill="rgb(31, 33, 35)" d="M446.893,603.557 C446.341,603.150 436.810,607.870 424.486,609.306 C413.147,610.626 404.730,610.136 398.772,609.034 C390.076,607.425 377.793,604.534 376.854,604.991 C376.087,605.364 381.095,607.987 387.215,609.889 C394.658,612.203 401.945,613.965 411.060,613.902 C416.863,613.970 423.760,612.755 429.021,611.596 C440.645,609.036 447.540,604.034 446.893,603.557 Z"/>
                    
                    <!-- Unteres Augenlid -->
                    <path fill-rule="evenodd" fill="rgb(31, 33, 35)" d="M546.485,603.683 C547.036,603.278 556.555,607.983 568.862,609.414 C580.187,610.731 588.593,610.241 594.544,609.143 C603.228,607.539 615.495,604.657 616.432,605.112 C617.199,605.485 612.197,608.099 606.085,609.996 C598.652,612.302 591.374,614.059 582.271,613.996 C576.476,614.064 569.587,612.853 564.333,611.697 C552.724,609.145 545.838,604.159 546.485,603.683 Z"/>
                
                    <animateTransform attributeName="transform" type="translate" dur="3s" keyTimes="0;0.7;0.72;0.74;1" repeatCount="indefinite" values="0,0;0,0;0,-3;0,0;0,0"/>
                    <animateTransform attributeName="transform" type="scale" dur="3s" keyTimes="0;0.7;0.72;0.74;1" repeatCount="indefinite" values="1,1;1,1;1,.1;1,1;1,1" additive="sum"/>
                </g>
            
            </g>

            <!-- Bart -->
            <path fill-rule="evenodd"  stroke="rgb(0, 0, 0)" stroke-width="2px" stroke-linecap="round" stroke-linejoin="round" fill="rgb(255, 255, 255)" d="">
                <animate attributeName="d" dur="1.5s" repeatCount="indefinite" values=" 
                    M324.213,482.912 C328.686,483.345 297.054,628.186 376.189,711.870 C399.979,737.027 440.190,763.930 490.874,766.173 C535.654,768.156 575.803,750.333 603.088,727.867 C696.394,651.042 674.289,485.989 679.053,485.911 C683.802,485.834 684.009,649.334 669.058,747.864 C664.455,778.197 656.978,809.412 641.538,844.432 C633.705,862.198 624.897,878.891 614.767,894.158 C592.516,927.689 566.381,941.408 542.829,974.351 C523.124,1001.913 510.413,1026.571 488.876,1027.003 C466.618,1027.448 450.821,1001.705 431.926,975.161 C406.334,939.211 378.744,921.202 356.991,883.628 C324.204,826.995 318.097,774.759 315.027,732.962 C305.842,607.900 320.059,482.510 324.213,482.912 Z;
                    M322.039,485.862 C326.232,486.546 304.209,625.165 383.171,710.895 C407.131,736.592 447.146,764.486 497.575,766.498 C542.209,768.324 582.297,749.195 609.336,725.530 C702.627,643.522 669.230,484.611 674.322,484.010 C678.788,484.272 689.616,642.633 680.211,739.640 C677.296,769.564 671.269,800.774 657.306,835.995 C650.234,853.848 642.153,870.604 632.738,885.850 C612.095,919.285 586.503,933.096 565.764,964.198 C548.450,990.167 538.406,1012.658 516.906,1013.059 C494.721,1013.461 476.169,990.047 455.030,965.157 C426.486,931.473 398.213,913.723 374.847,876.668 C339.908,820.703 331.757,768.858 326.564,728.092 C311.350,606.020 317.780,485.745 322.039,485.862 Z;
                    M324.213,482.912 C328.686,483.345 297.054,628.186 376.189,711.870 C399.979,737.027 440.190,763.930 490.874,766.173 C535.654,768.156 575.803,750.333 603.088,727.867 C696.394,651.042 674.289,485.989 679.053,485.911 C683.802,485.834 684.009,649.334 669.058,747.864 C664.455,778.197 656.978,809.412 641.538,844.432 C633.705,862.198 624.897,878.891 614.767,894.158 C592.516,927.689 566.381,941.408 542.829,974.351 C523.124,1001.913 510.413,1026.571 488.876,1027.003 C466.618,1027.448 450.821,1001.705 431.926,975.161 C406.334,939.211 378.744,921.202 356.991,883.628 C324.204,826.995 318.097,774.759 315.027,732.962 C305.842,607.900 320.059,482.510 324.213,482.912 Z
                "/>
            </path>

            <!-- Hut -->
            <g>
                <!-- Hut -->
                <path fill-rule="evenodd"  stroke="rgb(0, 0, 0)" stroke-width="2px" stroke-linecap="round" stroke-linejoin="round" fill="rgb(127, 30, 30)">
                    <animate attributeName="d" dur="2.4s" repeatCount="indefinite" values=" 
                        M321.214,441.920 C328.064,360.341 356.812,283.256 407.250,220.285 C430.355,191.438 469.053,153.870 521.089,123.311 C552.665,104.768 588.385,86.317 634.670,74.880 C681.003,63.432 721.605,59.053 731.258,75.498 C738.940,88.585 720.802,109.556 699.277,147.736 C678.773,184.106 664.651,220.982 660.224,244.004 C656.379,264.005 655.219,291.415 657.569,321.621 C660.541,359.816 668.119,397.925 679.940,435.511 C621.438,450.649 561.550,458.823 501.133,459.916 C440.597,461.012 380.335,454.984 321.214,441.920 Z;
                        M321.214,441.919 C329.290,369.735 355.170,301.545 398.000,244.000 C431.324,199.227 469.132,166.636 508.000,144.000 C548.937,120.159 594.160,104.976 641.000,100.000 C690.006,94.794 756.109,99.176 761.258,120.498 C764.573,134.226 718.669,168.212 707.000,182.000 C684.435,208.661 670.776,235.235 665.000,254.000 C659.540,271.739 656.625,294.155 657.569,321.621 C658.877,359.691 666.838,398.228 679.940,435.511 C621.438,450.649 561.550,458.823 501.133,459.916 C440.597,461.012 380.335,454.984 321.214,441.919 Z;
                        M321.214,441.920 C328.064,360.341 356.812,283.256 407.250,220.285 C430.355,191.438 469.053,153.870 521.089,123.311 C552.665,104.768 588.385,86.317 634.670,74.880 C681.003,63.432 721.605,59.053 731.258,75.498 C738.940,88.585 720.802,109.556 699.277,147.736 C678.773,184.106 664.651,220.982 660.224,244.004 C656.379,264.005 655.219,291.415 657.569,321.621 C660.541,359.816 668.119,397.925 679.940,435.511 C621.438,450.649 561.550,458.823 501.133,459.916 C440.597,461.012 380.335,454.984 321.214,441.920 Z
                    "/>
                </path>
                <!-- Bommel -->
                <path fill-rule="evenodd" stroke="rgb(0, 0, 0)" stroke-width="2px" stroke-linecap="round" stroke-linejoin="round" fill="rgb(255, 255, 255)" d="M721.035,2.000 C762.989,2.000 797.000,36.020 797.000,77.986 C797.000,119.952 762.989,153.972 721.035,153.972 C679.080,153.972 645.069,119.952 645.069,77.986 C645.069,36.020 679.080,2.000 721.035,2.000 Z">
                    <animateTransform attributeType="xml" attributeName="transform" type="translate" dur="2.4s" repeatCount="indefinite" values="0,0;50,50;0,0"/>
                </path>
                <!-- Hut Rand -->
                <path fill-rule="evenodd"  stroke="rgb(0, 0, 0)" stroke-width="2px" stroke-linecap="round" stroke-linejoin="round" fill="rgb(255, 255, 255)" d="M682.052,489.911 C621.619,503.597 560.085,510.624 498.135,510.907 C438.299,511.181 378.795,505.160 320.215,492.910 L320.215,439.920 C378.988,446.607 437.992,449.608 497.135,448.918 C558.389,448.204 619.397,443.535 680.053,434.921 L682.052,489.911 Z"/>
            </g>

        </g>
    </g>
</svg>