<svg xmlns="http://www.w3.org/2000/svg" xmlns:xlink="http://www.w3.org/1999/xlink" width="100" height="100">
        <path fill="rgb(255, 210, 20)" fill-rule="evenodd" d="M 0,50 L30.437,45.842 L4.323,29.663 L33.82,38.244 L16.543,12.843000000000004 L40,32.679 L34.549,2.4470000000000027 L47.91,30.11 L55.226,0.2740000000000009 L56.181,30.979 L75,6.698999999999998 L63.382999999999996,35.137 L90.451,20.611 L68.271,41.865 L98.907,39.604 L70,50 L98.907,60.396 L68.271,58.135 L90.451,79.389 L63.382,64.863 L75,93.301 L56.18,69.02199999999999 L55.226,99.726 L47.91,69.89 L34.549,97.553 L40,67.32 L16.543,87.157 L33.819,61.756 L4.323,70.337 L30.437,54.158 Z">
            <animateTransform attributeName="transform" type="rotate" dur="5s" repeatCount="indefinite" values="0 50 50;360 50 50"/>
        </path>
    </svg>