<svg xmlns="http://www.w3.org/2000/svg" xmlns:xlink="http://www.w3.org/1999/xlink" width="150" height="150">
        <path fill="rgb(255, 210, 20)" fill-rule="evenodd" d="M 0,75 L65.055,73.955 L1.6389999999999958,59.407 L65.49,71.91 L6.483999999999995,44.495000000000005 L66.34,70 L14.323999999999998,30.915999999999997 L67.569,68.309 L24.814999999999998,19.264000000000003 L69.122,66.91 L37.5,10.048000000000002 L70.93299999999999,65.865 L51.824,3.6710000000000065 L72.921,65.218 L67.16,0.41100000000000136 L75,65 L82.84,0.41100000000000136 L77.079,65.219 L98.176,3.6710000000000065 L79.06700000000001,65.864 L112.5,10.048000000000002 L80.878,66.91 L125.185,19.264000000000003 L82.431,68.309 L135.676,30.915999999999997 L83.66,70 L143.51600000000002,44.495000000000005 L84.51,71.91 L148.361,59.407 L84.945,73.955 L150,75 L84.945,76.045 L148.361,90.593 L84.51,78.09 L143.51600000000002,105.505 L83.66,80 L135.676,119.084 L82.431,81.691 L125.185,130.736 L80.878,83.09 L112.5,139.952 L79.06700000000001,84.135 L98.176,146.329 L77.079,84.782 L82.84,149.589 L75,85 L67.16,149.589 L72.921,84.781 L51.824,146.329 L70.93299999999999,84.136 L37.5,139.952 L69.122,83.09 L24.814999999999998,130.736 L67.569,81.691 L14.323999999999998,119.084 L66.34,80 L6.483999999999995,105.505 L65.49,78.09 L1.6389999999999958,90.593 L65.055,76.045 Z">
            <animateTransform attributeName="transform" type="rotate" dur="5s" repeatCount="indefinite" values="0 75 75;360 75 75"/>
        </path>
    </svg>