<svg xmlns="http://www.w3.org/2000/svg" xmlns:xlink="http://www.w3.org/1999/xlink" width="80" height="80">
        <path fill="rgb(255, 210, 20)" fill-rule="evenodd" d="M 0,40 L25.228,37.395 L2.411999999999999,26.319000000000003 L27.009999999999998,32.5 L9.358,14.288 L30.358,28.509 L20,5.359000000000002 L34.87,25.905 L33.054,0.607999999999997 L40,25 L46.946,0.607999999999997 L45.131,25.905 L60,5.359000000000002 L49.641999999999996,28.509999999999998 L70.642,14.288 L52.991,32.5 L77.588,26.319000000000003 L54.772,37.396 L80,40 L54.772,42.605 L77.588,53.681 L52.99,47.5 L70.642,65.712 L49.641999999999996,51.491 L60,74.64099999999999 L45.13,54.095 L46.946,79.392 L40,55 L33.054,79.392 L34.869,54.095 L20,74.64099999999999 L30.358,51.49 L9.358,65.712 L27.009,47.5 L2.411999999999999,53.681 L25.228,42.604 Z">
            <animateTransform attributeName="transform" type="rotate" dur="5s" repeatCount="indefinite" values="0 40 40;360 40 40"/>
        </path>
    </svg>