<!-- This file was generated by Phototshop CC 2022 -->
<svg xmlns="http://www.w3.org/2000/svg" xmlns:xlink="http://www.w3.org/1999/xlink" width="800px" height="800px">
    <path fill="rgb(56, 33, 23)" d="M378.471,0.690 C373.346,2.546 374.643,1.596 371.652,5.022 C357.029,39.969 383.238,90.196 335.855,97.438 C338.127,101.290 340.400,105.142 342.674,108.990 C366.959,109.363 401.617,110.674 421.086,104.660 C424.495,99.364 427.905,94.069 431.313,88.774 C413.955,89.208 394.551,92.392 381.879,87.330 C380.744,58.454 379.607,29.571 378.471,0.690 ZM468.814,3.576 C458.226,11.424 459.449,26.262 455.178,39.677 C440.864,84.629 425.053,121.582 375.061,136.428 C340.081,125.247 315.262,80.644 298.354,54.119 C296.082,54.119 293.807,54.119 291.536,54.119 C291.536,55.563 291.536,57.006 291.536,58.449 C313.049,96.985 366.707,166.392 283.012,179.747 C248.442,185.266 183.464,115.442 163.689,98.882 C160.848,99.364 158.007,99.847 155.166,100.327 C168.683,137.646 227.951,150.548 230.170,197.074 C173.297,270.318 83.089,155.280 54.595,169.639 C55.731,171.082 56.868,172.528 58.004,173.969 C82.325,182.619 135.071,213.308 138.121,238.950 C135.847,241.357 133.575,243.765 131.302,246.169 C103.625,252.535 37.480,243.158 13.683,254.836 C14.253,255.799 14.820,256.760 15.388,257.725 C139.971,273.527 173.963,241.123 252.330,207.182 C280.168,197.557 308.016,187.931 335.855,178.303 C358.498,165.220 413.669,132.443 444.950,130.650 C444.381,131.615 443.814,132.576 443.245,133.539 C434.095,135.922 429.481,139.346 424.495,145.090 C424.495,147.499 424.495,149.907 424.495,152.311 C429.608,152.311 434.722,152.311 439.837,152.311 C439.837,152.794 439.837,153.274 439.837,153.757 C399.210,154.642 381.682,174.618 369.947,199.963 C369.947,200.446 369.947,200.924 369.947,201.407 C423.735,205.271 419.156,175.729 450.064,160.974 C450.064,161.455 450.064,161.937 450.064,162.420 C446.092,168.636 445.402,167.683 448.359,173.969 C468.571,182.231 492.170,199.858 526.770,188.412 C538.703,183.599 550.637,178.786 562.568,173.969 C590.333,169.116 604.462,182.090 623.934,172.528 C624.503,170.121 625.070,167.715 625.639,165.306 C624.503,165.306 623.365,165.306 622.230,165.306 C614.424,162.757 604.317,162.323 598.365,159.531 C598.365,157.605 598.365,155.679 598.365,153.757 C610.573,147.195 631.531,144.275 644.389,137.869 C643.821,134.982 643.253,132.095 642.684,129.206 C640.311,126.429 642.511,128.342 639.274,126.319 C608.806,115.661 567.128,116.827 540.409,103.216 C540.409,102.734 540.409,102.251 540.409,101.769 C542.114,97.921 543.818,94.069 545.522,90.219 C544.386,90.219 543.250,90.219 542.114,90.219 C522.786,84.136 511.407,99.053 494.384,93.106 C493.816,91.663 493.247,90.219 492.679,88.774 C496.049,59.174 521.094,38.564 536.999,18.019 C536.431,16.573 535.863,15.130 535.296,13.685 C534.726,13.685 534.159,13.685 533.590,13.685 C532.454,13.685 531.316,13.685 530.180,13.685 C510.863,33.416 491.541,53.156 472.223,72.888 C472.682,86.376 477.507,103.596 473.929,108.990 C473.929,108.029 473.929,107.066 473.929,106.103 C457.152,80.920 480.244,28.934 468.814,3.576 ZM252.330,6.463 C239.240,15.404 260.205,80.427 248.920,98.882 C158.435,109.411 148.034,54.361 110.847,16.573 C108.573,16.573 106.300,16.573 104.027,16.573 C103.460,17.054 102.891,17.536 102.322,18.019 C118.319,43.476 140.691,63.191 153.461,91.663 C151.757,93.589 150.053,95.515 148.348,97.438 C80.297,99.681 50.520,55.196 3.457,33.901 C-1.046,40.342 -0.387,36.904 5.161,44.009 C50.142,62.284 87.049,133.349 161.984,116.209 C161.984,115.729 161.984,115.246 161.984,114.764 C155.885,110.868 153.269,108.463 151.756,100.327 C153.461,99.364 155.166,98.401 156.870,97.438 C160.279,97.438 163.690,97.438 167.099,97.438 C175.621,103.697 184.146,109.955 192.669,116.209 C233.575,114.285 274.492,112.361 315.400,110.436 C315.400,109.955 315.400,109.473 315.400,108.990 C313.695,105.623 311.991,102.251 310.286,98.882 C248.110,96.035 272.331,43.583 252.330,6.463 ZM533.590,108.990 C529.082,113.487 506.085,117.642 499.498,119.100 C501.770,116.692 504.043,114.285 506.317,111.879 C515.406,110.916 524.499,109.955 533.590,108.990 ZM521.657,114.764 C524.498,116.209 527.340,117.655 530.180,119.100 C530.180,120.542 530.180,121.985 530.180,123.431 C527.907,125.354 525.635,127.280 523.362,129.206 C515.668,128.897 514.172,128.186 509.726,126.319 C509.726,125.837 509.726,125.354 509.726,124.874 C512.473,118.150 513.776,117.138 521.657,114.764 ZM525.066,119.100 C521.657,119.579 518.248,120.059 514.839,120.542 C514.839,122.468 514.839,124.393 514.839,126.319 C517.111,126.319 519.385,126.319 521.657,126.319 C524.520,122.008 524.509,122.838 525.066,119.100 ZM695.527,573.962 C698.936,574.444 702.347,574.927 705.756,575.407 C705.756,577.814 705.756,580.222 705.756,582.629 C696.754,604.587 674.038,607.959 671.663,634.613 C672.232,634.613 672.799,634.613 673.369,634.613 C681.322,631.243 689.278,627.874 697.232,624.502 C697.232,624.985 697.232,625.467 697.232,625.948 C696.096,626.428 694.959,626.911 693.822,627.391 C688.398,631.186 648.131,660.748 680.187,662.048 C691.549,658.677 702.916,655.309 714.279,651.942 C714.279,649.534 714.279,647.129 714.279,644.721 C712.006,638.945 709.731,633.167 707.460,627.391 C736.711,609.171 748.150,485.705 724.506,451.223 C674.551,441.035 606.933,442.847 579.613,413.675 C580.182,413.197 580.751,412.716 581.318,412.234 C637.058,442.468 675.087,447.887 727.915,415.123 C738.727,408.418 743.622,398.392 758.599,394.906 C776.357,419.636 752.915,473.915 767.121,488.766 C770.530,488.766 773.940,488.766 777.349,488.766 C776.377,517.097 751.068,514.257 748.370,542.194 C748.939,543.159 749.507,544.122 750.075,545.081 C750.644,545.081 751.211,545.081 751.779,545.081 C762.006,541.233 772.236,537.381 782.463,533.531 C782.463,534.014 782.463,534.492 782.463,534.975 C781.328,535.455 780.191,535.938 779.054,536.418 C771.667,540.268 764.279,544.122 756.893,547.972 C756.325,553.265 755.758,558.563 755.188,563.856 C769.961,563.856 784.737,563.856 799.509,563.856 C799.509,562.412 799.509,560.969 799.509,559.523 C789.548,532.868 821.888,335.069 750.075,351.585 C720.533,368.430 690.980,385.281 661.436,402.128 C661.436,400.202 661.436,398.276 661.436,396.350 C671.373,374.779 684.915,333.657 673.369,305.375 C663.265,280.632 591.405,214.766 562.568,204.295 C537.157,195.070 509.968,201.312 480.748,194.187 C468.247,187.451 455.744,180.712 443.245,173.969 C441.540,174.934 439.836,175.897 438.132,176.860 C432.829,187.645 420.946,197.504 407.448,201.407 C407.677,238.893 451.335,304.662 444.950,318.372 C424.760,361.727 239.449,376.052 185.850,403.571 C150.614,421.659 145.586,449.002 95.505,456.997 C94.937,457.960 94.367,458.923 93.800,459.886 C97.208,462.292 100.619,464.700 104.027,467.107 C111.415,468.068 118.803,469.033 126.188,469.994 C126.188,471.920 126.188,473.846 126.188,475.772 C96.518,543.064 160.455,561.757 73.345,604.288 C73.345,605.734 73.345,607.177 73.345,608.621 C83.292,615.635 125.828,701.943 133.006,716.921 C135.847,727.510 138.689,738.098 141.530,748.687 C146.075,746.765 150.620,744.839 155.166,742.913 C159.711,746.763 164.258,750.615 168.804,754.465 C172.213,752.539 175.622,750.615 179.031,748.687 C173.468,762.769 165.907,772.426 170.508,790.565 C181.623,797.516 192.486,800.414 209.714,799.229 C209.714,796.825 209.714,794.417 209.714,792.008 C203.464,782.383 197.213,772.755 190.963,763.129 C192.669,763.129 194.373,763.129 196.077,763.129 C200.054,769.386 204.032,775.646 208.009,781.900 C213.691,781.900 219.373,781.900 225.055,781.900 C225.623,780.939 226.190,779.974 226.760,779.013 C209.884,729.929 116.972,703.134 122.779,631.724 C125.269,601.106 177.894,585.794 201.191,571.075 C246.558,542.415 272.041,514.944 284.716,456.997 C285.852,456.997 286.989,456.997 288.126,456.997 C288.126,460.366 288.126,463.737 288.126,467.107 C280.180,491.230 269.636,508.003 260.852,527.756 C339.412,529.047 512.349,504.758 560.865,480.104 C546.942,476.254 534.643,467.585 526.770,458.442 C553.520,465.706 570.970,483.463 606.888,488.766 C639.011,493.510 673.088,477.373 695.527,484.436 C697.801,485.399 700.074,486.360 702.346,487.321 C711.367,517.784 697.947,549.932 695.527,573.962 ZM294.945,530.640 C282.444,530.640 269.942,530.640 257.443,530.640 C230.426,559.673 179.232,576.014 155.166,602.843 C154.031,603.325 152.893,603.808 151.756,604.288 C148.443,613.878 169.470,626.064 173.918,631.724 C185.280,651.938 196.647,672.158 208.009,692.375 C212.008,703.943 210.622,714.464 216.532,722.697 C217.100,722.697 217.669,722.697 218.236,722.697 C222.782,719.808 227.327,716.921 231.874,714.034 C235.851,717.884 239.829,721.734 243.806,725.584 C250.055,722.216 256.307,718.847 262.557,715.478 C256.307,720.288 250.055,725.105 243.806,729.918 C242.856,763.953 261.238,776.190 293.240,781.900 C293.468,764.739 287.930,757.642 284.716,744.357 C285.284,744.357 285.852,744.357 286.421,744.357 C286.989,745.319 287.557,746.282 288.126,747.245 C293.058,755.179 291.733,763.171 303.467,766.018 C306.308,763.129 309.150,760.240 311.991,757.354 C294.630,718.162 176.677,652.977 199.486,599.956 C213.695,576.952 273.222,554.510 294.945,530.640 Z"/>
</svg>